<svg preserveAspectRatio="xMidYMid meet" width="100%" height="100%" overflow="visible" style="display: block;" viewBox="0 0 16 16" fill="none" xmlns="http://www.w3.org/2000/svg">
<g id="public">
<mask id="mask0_0_6041" style="mask-type:alpha" maskUnits="userSpaceOnUse" x="0" y="0" width="16" height="16">
<rect id="Bounding box" width="16" height="16" fill="var(--fill-0, #D9D9D9)"/>
</mask>
<g mask="url(#mask0_0_6041)">
<path id="public_2" d="M8.00467 14.3996C7.12378 14.3996 6.29444 14.2329 5.51667 13.8996C4.73889 13.5663 4.05833 13.1079 3.475 12.5246C2.89167 11.9413 2.43333 11.2609 2.1 10.4836C1.76667 9.70628 1.6 8.87572 1.6 7.99194C1.6 7.10817 1.76667 6.28017 2.1 5.50794C2.43333 4.73572 2.89167 4.05794 3.475 3.47461C4.05833 2.89128 4.73867 2.43294 5.516 2.09961C6.29333 1.76628 7.12389 1.59961 8.00767 1.59961C8.89144 1.59961 9.71945 1.76628 10.4917 2.09961C11.2639 2.43294 11.9417 2.89128 12.525 3.47461C13.1083 4.05794 13.5667 4.73694 13.9 5.51161C14.2333 6.28639 14.4 7.11417 14.4 7.99494C14.4 8.87583 14.2333 9.70517 13.9 10.4829C13.5667 11.2607 13.1083 11.9413 12.525 12.5246C11.9417 13.1079 11.2627 13.5663 10.488 13.8996C9.71322 14.2329 8.88544 14.3996 8.00467 14.3996ZM7.2 13.1329V11.9996C6.97778 11.9996 6.78889 11.9213 6.63333 11.7646C6.47778 11.6079 6.4 11.4196 6.4 11.1996V10.3996L2.91667 6.91628C2.87222 7.12739 2.84167 7.32183 2.825 7.49961C2.80833 7.67739 2.8 7.84405 2.8 7.99961C2.8 9.27739 3.21389 10.4052 4.04167 11.3829C4.86944 12.3607 5.92222 12.9441 7.2 13.1329ZM12 11.3163C12.2 11.0829 12.375 10.8385 12.525 10.5829C12.675 10.3274 12.7992 10.0577 12.8977 9.77378C12.9961 9.48978 13.0711 9.19811 13.1227 8.89878C13.1742 8.59933 13.2 8.29961 13.2 7.99961C13.2 6.94839 12.9111 5.98839 12.3333 5.11961C11.7556 4.25072 10.9778 3.61072 10 3.19961V3.59961C10 3.92961 9.8825 4.21211 9.6475 4.44711C9.4125 4.68211 9.13 4.79961 8.8 4.79961H7.2V5.59961C7.2 5.82628 7.12333 6.01628 6.97 6.16961C6.81667 6.32294 6.62667 6.39961 6.4 6.39961H5.6V7.99961H9.6C9.82667 7.99961 10.0167 8.07628 10.17 8.22961C10.3233 8.38294 10.4 8.57294 10.4 8.79961V10.3996H11.0833C11.3389 10.3996 11.5556 10.4885 11.7333 10.6663C11.9111 10.8441 12 11.0607 12 11.3163Z" fill="var(--fill-0, #101828)"/>
</g>
</g>
</svg>
