<svg width="16" height="16" viewBox="0 0 16 16" fill="none" xmlns="http://www.w3.org/2000/svg">
<path d="M15.3332 8L13.7065 6.14L13.9332 3.68L11.5265 3.13333L10.2665 1L7.99984 1.97333L5.73317 1L4.47317 3.12667L2.0665 3.66667L2.29317 6.13333L0.666504 8L2.29317 9.86L2.0665 12.3267L4.47317 12.8733L5.73317 15L7.99984 14.02L10.2665 14.9933L11.5265 12.8667L13.9332 12.32L13.7065 9.86L15.3332 8ZM6.25317 10.6733L4.6665 9.07333C4.4065 8.81333 4.4065 8.39333 4.6665 8.13333L4.71317 8.08667C4.97317 7.82667 5.39984 7.82667 5.65984 8.08667L6.73317 9.16667L10.1665 5.72667C10.4265 5.46667 10.8532 5.46667 11.1132 5.72667L11.1598 5.77333C11.4198 6.03333 11.4198 6.45333 11.1598 6.71333L7.21317 10.6733C6.93984 10.9333 6.51984 10.9333 6.25317 10.6733Z" fill="#026AA2"/>
</svg>
